<?xml version="1.0" encoding="UTF-8" standalone="no"?>
<svg
   xmlns:dc="http://purl.org/dc/elements/1.1/"
   xmlns:cc="http://creativecommons.org/ns#"
   xmlns:rdf="http://www.w3.org/1999/02/22-rdf-syntax-ns#"
   xmlns:svg="http://www.w3.org/2000/svg"
   xmlns="http://www.w3.org/2000/svg"
   id="svg8"
   version="1.1"
   viewBox="0 0 72.117363 96.526985"
   height="96.526985mm"
   width="72.117363mm">
  <defs
     id="defs2" />
  <metadata
     id="metadata5">
    <rdf:RDF>
      <cc:Work
         rdf:about="">
        <dc:format>image/svg+xml</dc:format>
        <dc:type
           rdf:resource="http://purl.org/dc/dcmitype/StillImage" />
        <dc:title></dc:title>
      </cc:Work>
    </rdf:RDF>
  </metadata>
  <g
     transform="translate(-33.910503,-104.77397)"
     id="layer1">
    <path
       id="path23"
       d="m 68.032834,200.78912 c -1.10331,-1.22093 -3.45227,-2.09464 -8.79735,-3.27222 -10.298564,-2.26889 -17.448199,-6.92775 -20.920861,-13.63251 -0.565283,-1.09141 -1.307483,-2.81781 -1.649333,-3.83646 l -0.621545,-1.85208 -0.0746,-23.39186 -0.0746,-23.39186 -0.774965,-1.05379 c -1.151866,-1.56629 -1.495543,-3.43156 -0.967159,-5.24913 0.492356,-1.69365 1.667549,-3.42645 2.7625,-4.07325 0.77085,-0.45535 0.771272,-0.45706 0.694467,-2.81034 -0.06756,-2.06995 -0.157623,-2.45071 -0.744751,-3.14847 -1.861612,-2.2124 -0.914956,-5.67719 2.023366,-7.40557 1.354919,-0.79699 1.450992,-0.81352 3.947124,-0.67898 1.407122,0.0758 2.936184,0.0296 3.397915,-0.10287 0.597327,-0.17132 1.175533,-0.12669 2.004306,0.15469 0.846147,0.28727 1.305169,0.32033 1.677921,0.12084 0.711827,-0.38096 1.877885,-0.32746 2.664579,0.12226 0.363802,0.20796 1.091328,0.38234 1.616724,0.3875 0.57086,0.006 1.348855,0.27647 1.933352,0.67312 l 0.97809,0.66375 1.23762,-0.7253 c 0.68069,-0.39891 1.55582,-1.0877 1.94473,-1.53064 1.88757,-2.14983 4.70467,-2.53557 6.1801,-0.84622 0.43657,0.49986 1.38907,1.22282 2.11667,1.60659 0.72761,0.38377 1.57193,0.87822 1.87629,1.09879 0.51185,0.37096 0.62865,0.34121 1.55697,-0.39652 2.02002,-1.60531 4.90895,-1.71919 6.95882,-0.27431 0.62302,0.43914 1.25132,0.79844 1.39622,0.79844 0.1449,0 1.09095,-0.41671 2.10233,-0.92604 1.01138,-0.50932 2.14541,-0.92604 2.52007,-0.92604 0.77222,0 1.98889,0.56633 2.47499,1.15205 0.28569,0.34423 0.50336,0.3149 1.74801,-0.23555 0.78193,-0.34581 2.05517,-0.70853 2.82941,-0.80606 0.77425,-0.0975 1.64585,-0.38786 1.93689,-0.64518 0.98316,-0.86925 2.63228,-1.58193 3.66056,-1.58193 0.81014,0 1.20944,0.18688 1.92215,0.89959 0.581526,0.58153 0.899576,1.15371 0.899576,1.61834 0,0.65184 0.0677,0.70182 0.72761,0.53675 1.89419,-0.47384 2.43474,-0.45982 3.31798,0.0861 2.94742,1.82161 1.35874,5.93782 -2.78263,7.20963 l -1.39525,0.42848 -0.0772,2.17305 c -0.0767,2.15752 -0.0705,2.18041 0.85318,3.20287 1.11491,1.23407 1.36478,2.06598 0.96498,3.21282 -0.21416,0.61434 -0.29376,8.21811 -0.28189,26.92603 0.0161,25.40223 0.003,26.12354 -0.52285,28.16287 -1.998926,7.75624 -7.916646,13.51781 -17.233606,16.77887 -1.25097,0.43785 -3.9894,1.17705 -6.08542,1.64267 -4.3267,0.96116 -6.54705,1.77244 -7.96127,2.90895 -1.16454,0.93585 -1.30587,0.9523 -1.96022,0.22818 z m 2.16475,-1.31011 c 1.46472,-1.00775 3.1263,-1.58545 7.14786,-2.48515 11.80743,-2.64156 18.80393,-7.84463 21.71963,-16.15218 l 0.74289,-2.11667 v -25.2677 -25.26771 l -9.32656,-0.0695 c -9.82801,-0.0733 -9.84665,-0.071 -8.99583,1.07555 0.29524,0.39787 1.18253,0.45299 8.26823,0.51359 l 7.9375,0.0679 0.0727,21.69583 c 0.0816,24.34655 0.11306,23.86657 -1.80688,27.57675 -1.82654,3.52971 -4.57012,6.21006 -8.66835,8.46858 -2.75866,1.52029 -5.56527,2.50167 -9.97081,3.48648 -4.71622,1.05425 -5.92695,1.45807 -7.25425,2.41957 -0.59133,0.42835 -1.14828,0.77883 -1.23768,0.77883 -0.0894,0 -0.50528,-0.28841 -0.9242,-0.64091 -1.01442,-0.85357 -3.2431,-1.66267 -6.31767,-2.29356 -7.621434,-1.56389 -12.709998,-3.93194 -16.420421,-7.64151 -2.081307,-2.08083 -3.403486,-4.18854 -4.40454,-7.02135 l -0.747087,-2.11413 -0.132291,-20.75085 -0.132292,-20.75084 -0.77108,-0.20613 c -0.424094,-0.11337 -0.870578,-0.14463 -0.992188,-0.0695 -0.121609,0.0752 -0.219039,10.04158 -0.216513,22.1476 0.0049,23.69922 0.0046,23.69254 1.405568,27.16098 3.019402,7.47529 10.102135,12.53967 20.717824,14.81391 3.86067,0.82709 6.13112,1.60048 7.48708,2.55035 0.66489,0.46576 1.3065,0.8591 1.4258,0.87409 0.11931,0.015 0.7464,-0.33705 1.39354,-0.7823 z m 1.29997,-14.53417 c 3.45632,-0.36765 6.25531,-1.16876 9.27194,-2.65376 7.61447,-3.74839 12.98019,-10.82986 14.55585,-19.21024 0.65765,-3.49779 0.42237,-8.94995 -0.52261,-12.11072 -2.22978,-7.45814 -6.66676,-12.95762 -13.31895,-16.50835 -2.02217,-1.07938 -2.58269,-1.25614 -4.45365,-1.40447 -1.5126,-0.11992 -2.63778,-0.39303 -3.83646,-0.9312 -1.54255,-0.69255 -1.95964,-0.76075 -4.60654,-0.7532 -5.92288,0.0169 -11.02338,1.73252 -15.883709,5.34273 -10.383171,7.71255 -13.699342,22.22139 -7.720477,33.77847 0.59406,1.14831 1.604809,2.80059 2.246109,3.67174 0.641301,0.87114 1.33485,2.15247 1.541219,2.84739 0.489405,1.64801 2.375944,3.73934 4.152835,4.60366 0.757089,0.36826 2.216158,0.7872 3.242373,0.93098 1.02622,0.14378 2.29755,0.44179 2.82517,0.66225 1.69589,0.70858 4.87082,1.48362 6.99779,1.70824 2.91153,0.30748 2.86932,0.30728 5.50911,0.0265 z m -7.53952,-2.51761 c -0.94527,-0.21352 -1.868,-0.44552 -2.05052,-0.51556 -0.42393,-0.16268 -0.42441,-0.71508 -10e-4,-1.27057 0.30603,-0.40161 0.45916,-0.40195 2.05052,-0.005 2.62951,0.6566 7.73859,0.5756 10.55892,-0.16741 4.23183,-1.11487 7.55754,-3.02178 10.62392,-6.0916 2.73665,-2.73973 4.56526,-5.78683 5.80635,-9.67542 0.82638,-2.58918 1.03561,-8.16267 0.42041,-11.19878 -1.35628,-6.69326 -5.96901,-12.73276 -12.06382,-15.79522 -11.47512,-5.76591 -25.418713,-1.1166 -30.96618,10.32526 -1.687256,3.48003 -2.113326,5.16283 -2.293016,9.05646 -0.204973,4.44147 0.319868,7.07812 2.240763,11.25697 0.906916,1.97296 0.929216,2.09183 0.544729,2.90368 l -0.400897,0.84651 -0.751923,-1.1839 c -2.671652,-4.20648 -4.006807,-10.52585 -3.317807,-15.70337 1.677398,-12.60489 11.930761,-21.67505 24.493281,-21.66685 3.54548,0.002 5.92807,0.4336 9.01298,1.63147 6.08476,2.36272 11.50118,7.68616 13.88974,13.65132 3.78302,9.44765 1.66249,19.70972 -5.5496,26.85667 -3.36642,3.33602 -6.613,5.20548 -11.29769,6.50553 -2.20351,0.61149 -8.67536,0.75299 -10.94911,0.23939 z m -8.480854,-2.60737 c -3.903893,-1.05288 -5.526449,-4.40322 -3.862718,-7.97594 1.590183,-3.41478 5.657222,-5.02436 10.073402,-3.98667 1.0076,0.23676 1.93316,0.32929 2.05682,0.20563 0.12366,-0.12366 0.19224,-2.35917 0.15239,-4.96781 l -0.0724,-4.74297 -3.14454,-0.0748 c -3.38946,-0.0807 -3.89297,0.0861 -4.4199,1.46391 -0.588116,1.53781 -1.32036,-0.515 -0.774106,-2.17017 0.474046,-1.43638 1.299936,-1.73243 4.832906,-1.73243 1.98284,0 3.11079,-0.10786 3.32043,-0.3175 0.21991,-0.21991 0.3175,-1.59076 0.3175,-4.45966 v -4.14216 l -1.65481,-0.15453 c -0.91015,-0.085 -2.78605,-0.44844 -4.16867,-0.80768 -1.38262,-0.35923 -2.8312,-0.59248 -3.219077,-0.51834 -1.920748,0.36718 -2.579626,2.81587 -1.157173,4.30059 1.093371,1.14124 0.620245,1.3352 -0.507072,0.20789 -0.727637,-0.72764 -0.934861,-1.14834 -0.934861,-1.89791 0,-2.67594 2.867055,-5.17529 5.936683,-5.17529 0.80577,0 2.61065,0.29766 4.01085,0.66146 3.16751,0.82299 3.50056,0.82188 4.7349,-0.0158 l 0.99795,-0.67722 -0.21067,0.61108 c -0.37191,1.07882 -0.46879,11.57257 -0.11081,12.0039 0.24264,0.29237 1.04316,0.38113 3.43727,0.38113 1.71653,0 3.3093,-0.0723 3.53948,-0.1606 0.35726,-0.13709 0.41851,-0.77407 0.41851,-4.35215 v -4.19156 l -0.93606,-0.71397 c -0.88619,-0.67593 -0.99197,-0.69551 -1.98569,-0.36756 -0.57729,0.19053 -1.11982,0.27622 -1.2056,0.19044 -0.1705,-0.1705 0.98842,-0.94062 3.49738,-2.32407 l 1.61899,-0.89271 1.49735,1.04828 c 0.82355,0.57656 1.66772,1.16367 1.87593,1.30469 0.26403,0.17883 0.74212,0.0798 1.58002,-0.32729 1.80893,-0.87885 1.50636,-0.12961 -0.45602,1.12921 l -1.64984,1.05834 -0.0693,10.29834 -0.0693,10.29835 0.59839,0.63695 c 0.5679,0.60451 1.37507,0.70372 2.49031,0.30609 0.16734,-0.0597 0.34594,-0.003 0.39687,0.127 0.10116,0.25723 -4.72147,3.06102 -5.27656,3.06769 -0.18815,0.002 -1.00224,-0.4943 -1.80909,-1.10348 -1.39589,-1.05391 -1.50757,-1.09129 -2.30375,-0.77105 -2.50434,1.00727 -2.36859,0.40714 0.22541,-0.99651 l 1.84826,-1.00012 0.072,-4.94883 0.072,-4.94882 -3.77617,0.0734 -3.77618,0.0735 -0.14085,4.89479 c -0.0775,2.69213 -0.23664,5.09691 -0.35371,5.34394 -0.27205,0.57403 -1.56959,1.56195 -3.02521,2.30334 l -1.13852,0.57988 -1.7719,-0.71165 c -2.05048,-0.82354 -4.81749,-1.11565 -6.211131,-0.65571 -1.3341,0.44029 -2.997883,2.32786 -3.222204,3.6556 -0.553433,3.27575 2.099948,5.81419 6.188105,5.92007 1.09781,0.0284 1.1359,0.0498 0.415,0.23328 -1.11278,0.28315 -1.42607,0.2724 -2.791204,-0.0958 z m -13.6346,-49.27732 c 0.541339,-0.20773 0.541339,-1.05857 0,-1.2663 -0.230183,-0.0883 -0.79573,-0.16105 -1.256771,-0.16159 -1.12744,-0.001 -2.503805,-0.88139 -2.718929,-1.73851 -0.290112,-1.15591 0.486803,-2.4117 1.720753,-2.7814 0.882316,-0.26435 1.258442,-0.24221 2.326008,0.1369 2.208692,0.78433 2.291196,0.78035 3.538038,-0.17065 1.557964,-1.1883 1.827977,-1.81342 1.832598,-4.24275 l 0.0039,-2.05052 h 1.294609 c 1.485674,0 1.615807,0.17048 1.615807,2.11667 0,1.73741 -0.162593,2.05388 -1.372271,2.67101 -1.414749,0.72175 -1.29961,1.42621 0.235327,1.43979 0.658351,0.006 1.30486,0.19248 1.603809,0.46303 0.686627,0.62138 1.028877,0.56633 2.708135,-0.43561 1.730305,-1.0324 1.97386,-1.83925 0.595313,-1.97217 l -0.859896,-0.0829 v -4.98466 -4.98465 l 0.970137,-0.77827 c 0.705392,-0.56589 0.921239,-0.9057 0.790955,-1.24521 -0.143742,-0.37459 -0.363108,-0.43244 -1.109128,-0.29248 -0.725289,0.13606 -1.112086,0.0448 -1.757572,-0.41486 l -0.827625,-0.58933 -1.435655,0.77452 c -1.685849,0.90949 -2.041508,1.2741 -1.816013,1.86173 0.123042,0.32064 0.368859,0.39193 0.950431,0.27561 0.972826,-0.19456 1.324053,0.34312 1.324053,2.02696 0,1.42854 -0.414394,1.83193 -1.767472,1.72051 l -1.010653,-0.0832 0.0053,-3.26036 0.0053,-3.26036 -0.666769,0.1801 c -0.848572,0.2292 -1.817476,0.22572 -3.990944,-0.0144 -1.381164,-0.15257 -1.911639,-0.10136 -2.591387,0.25015 -0.995268,0.51468 -1.887242,1.84358 -1.888658,2.81381 -0.0013,0.87322 0.942687,1.89041 1.656397,1.78488 0.710521,-0.10506 0.855939,-0.57293 0.338801,-1.09007 -0.499306,-0.49931 -0.531346,-1.20977 -0.06267,-1.38962 0.520124,-0.19959 3.674765,0.60056 3.92536,0.99564 0.331207,0.52216 0.268845,2.44519 -0.09096,2.80499 -0.174625,0.17463 -0.872943,0.3175 -1.551818,0.3175 -1.555095,0 -2.628598,0.75539 -2.628598,1.84965 0,1.60036 0.582569,2.02503 1.455208,1.06077 0.335382,-0.37059 0.814908,-0.52917 1.6002,-0.52917 1.277142,0 1.442508,0.22749 1.442508,1.98438 0,1.87523 -0.07142,1.93894 -1.999892,1.78414 -2.115227,-0.16979 -3.727941,0.38457 -4.855811,1.66914 -1.581934,1.80172 -1.638338,4.04233 -0.139492,5.54118 1.090604,1.0906 3.31263,1.73627 4.460014,1.29598 z m 0.616952,-6.7615 c -1.143305,-0.41757 -0.895926,-0.84536 0.371639,-0.64267 1.233235,0.1972 1.54659,0.33927 1.54659,0.70122 0,0.31614 -0.973689,0.28642 -1.918229,-0.0585 z m 8.589762,-0.0207 c -0.185871,-0.22396 -0.202467,-0.49135 -0.04587,-0.73895 0.370128,-0.58522 0.316864,-5.37818 -0.064,-5.75904 -0.246945,-0.24695 -0.246945,-0.38806 0,-0.635 0.494504,-0.49451 0.413741,-4.31674 -0.108039,-5.11307 -0.393231,-0.60015 -0.391673,-0.66245 0.02052,-0.82063 1.049345,-0.40267 1.167668,0.2673 1.22085,6.91266 0.04339,5.42217 -0.0064,6.36132 -0.34069,6.42749 -0.21533,0.0426 -0.522577,-0.0804 -0.682771,-0.27346 z m -5.613199,-6.39698 c 0,-2.97127 -0.07227,-5.59065 -0.1606,-5.82083 -0.176504,-0.45996 0.542908,-0.60561 0.815197,-0.16503 0.213081,0.34477 0.202695,10.38556 -0.01132,10.94327 -0.477334,1.24391 -0.643278,-0.0349 -0.643277,-4.95741 z m -3.439584,-6.561 c -0.573429,-0.24977 -0.596322,-0.30362 -0.172015,-0.40459 0.650727,-0.15487 2.229659,0.15211 2.427307,0.47191 0.212299,0.34351 -1.424258,0.29466 -2.255292,-0.0673 z m 36.749493,19.65889 c 0.76759,-0.48604 0.0911,-0.99897 -1.54283,-1.16975 -2.00421,-0.20948 -3.0232,-0.71685 -3.43465,-1.71017 -1.02419,-2.47261 2.1056,-4.11577 5.08363,-2.66893 l 1.15106,0.55923 1.63415,-1.02149 c 1.01021,-0.63148 1.63415,-1.20174 1.63415,-1.49358 0,-0.61486 -0.69037,-0.87064 -1.20258,-0.44555 -0.32399,0.26889 -0.6067,0.26617 -1.45562,-0.014 -1.36387,-0.45011 -1.62737,-0.79913 -1.52607,-2.02138 0.0711,-0.85775 0.23744,-1.09205 1.14156,-1.60792 1.57264,-0.89731 2.26932,-0.71919 2.82762,0.72297 0.2535,0.65484 0.64785,1.87797 0.87632,2.71805 0.23368,0.8592 0.75051,1.90097 1.18136,2.38125 l 0.76594,0.85382 0.95978,-0.51281 c 1.55542,-0.83106 2.35773,-1.68745 1.99281,-2.12714 -0.1695,-0.20424 -0.6088,-0.40818 -0.97623,-0.45319 -0.56901,-0.0697 -0.79805,-0.40986 -1.54511,-2.29457 -0.4824,-1.21699 -1.0065,-2.34213 -1.16468,-2.50031 -0.50048,-0.50048 -0.31999,-0.9292 0.90828,-2.15747 l 1.19587,-1.19588 0.7726,0.85819 c 0.70636,0.78461 0.80908,0.82225 1.19823,0.43901 0.39104,-0.38512 0.3881,-0.48457 -0.0361,-1.22378 -0.43484,-0.75766 -0.43563,-0.84451 -0.0136,-1.48866 0.26026,-0.39721 0.86666,-0.79674 1.44608,-0.95276 1.20172,-0.32359 3.72005,0.014 4.05551,0.54371 0.31594,0.49883 0.30282,9.14605 -0.0148,9.73948 -0.13996,0.26152 -0.60765,0.62178 -1.03932,0.80058 -1.37188,0.56825 -1.26492,1.79633 0.13318,1.52907 0.49019,-0.0937 1.0798,0.0482 1.7117,0.41182 l 0.96393,0.55478 1.5576,-0.92411 c 1.83313,-1.08759 2.112066,-1.90291 0.69769,-2.03928 l -0.85989,-0.0829 v -4.71682 -4.71681 l 1.91939,-0.0969 c 2.160496,-0.1091 3.508296,-0.81179 3.802056,-1.98223 0.26256,-1.04609 -0.21212,-1.28058 -1.55449,-0.76792 -1.03169,0.394 -1.33856,0.40498 -2.602146,0.093 l -1.43252,-0.35363 0.065,-1.26195 c 0.0457,-0.88655 -0.0456,-1.30441 -0.30685,-1.40466 -0.5053,-0.1939 -1.84428,0.53113 -2.48487,1.34551 -0.43378,0.55145 -0.74992,0.66674 -1.82832,0.66674 -1.87754,0 -3.53665,0.65518 -4.71503,1.86194 -0.5631,0.57666 -1.11312,1.04848 -1.22228,1.04848 -0.10916,0 -0.38936,-0.40227 -0.62267,-0.89393 -0.23331,-0.49165 -0.71842,-1.17033 -1.07803,-1.50816 l -0.65383,-0.61424 -2.93661,1.44202 c -2.78817,1.36913 -2.95163,1.41642 -3.23387,0.93559 -0.84474,-1.43914 -1.64915,-2.06047 -2.84168,-2.19489 -2.0407,-0.23001 -3.78107,1.13321 -4.121,3.22797 -0.12899,0.79489 -0.0767,0.92856 0.3636,0.92856 0.28286,0 0.85649,-0.35719 1.27474,-0.79375 0.41826,-0.43657 0.97357,-0.79375 1.23403,-0.79375 0.74976,0 1.32282,1.13009 1.22964,2.42487 -0.0722,1.00359 -0.19114,1.19633 -0.96175,1.55881 -0.48364,0.2275 -0.98783,0.58509 -1.12043,0.79466 -0.38861,0.61418 -0.28494,2.00636 0.17801,2.39057 0.36605,0.3038 0.49754,0.26768 0.91865,-0.25237 0.71488,-0.88284 1.0354,-0.48143 1.0354,1.29669 v 1.56743 l -1.2997,0.65861 c -1.79965,0.91195 -2.49328,1.97176 -2.62292,4.00759 -0.099,1.55422 -0.0592,1.68593 0.78471,2.60199 0.48892,0.53069 1.3652,1.1333 1.94728,1.33912 1.1963,0.423 3.25376,0.507 3.80887,0.15551 z m -0.63387,-6.92182 c -0.8616,-0.31159 -1.27679,-0.59911 -1.19062,-0.82452 0.24061,-0.62951 0.29283,-9.15899 0.0615,-10.05273 -0.14025,-0.54193 -0.56145,-1.1024 -1.10304,-1.46774 -0.7519,-0.50722 -0.80933,-0.61668 -0.405,-0.77184 0.61494,-0.23597 1.74804,0.41185 2.16637,1.23858 0.22973,0.454 0.33185,2.19821 0.33456,5.71429 0.004,5.41486 0.012,5.44754 1.39444,5.7945 0.39937,0.10023 0.72613,0.34793 0.72613,0.55043 0,0.45445 -0.30404,0.42672 -1.98438,-0.18097 z m 7.1832,-0.57531 c -0.22066,-0.61847 -0.62974,-1.83886 -0.90906,-2.71198 -0.27932,-0.87313 -0.59534,-1.82563 -0.70227,-2.11667 -0.15316,-0.41687 -0.0542,-0.37752 0.46642,0.18544 0.36346,0.39303 0.91113,1.40506 1.21705,2.24896 0.30591,0.84389 0.74025,1.86202 0.96519,2.2625 0.22494,0.40048 0.33555,0.84696 0.2458,0.99219 -0.35536,0.57498 -0.90172,0.2086 -1.28313,-0.86044 z m 10.65425,0.92604 c -0.0121,-0.10914 -0.003,-2.88527 0.0194,-6.16917 0.0456,-6.58252 0.088,-6.41003 -1.65409,-6.73558 -1.51129,-0.28243 -1.53706,-0.72073 -0.0361,-0.61392 1.17655,0.0837 1.30849,0.0319 1.63543,-0.6417 0.40688,-0.83833 0.85099,-0.72879 0.85099,0.20991 0,0.71845 0.4873,1.05321 1.92602,1.32312 1.744466,0.32726 1.495486,0.75119 -0.32051,0.54573 l -1.64849,-0.18651 0.0876,6.23349 c 0.0814,5.79371 0.055,6.23347 -0.37538,6.23328 -0.25467,-1.2e-4 -0.47289,-0.0895 -0.48495,-0.19865 z m -16.91141,-8.26528 v -1.84913 l 2.08431,-1.04797 c 2.27298,-1.14283 2.66137,-1.10816 3.17716,0.28361 0.45001,1.21425 -0.34918,2.32841 -2.48334,3.46207 -2.67452,1.4207 -2.77813,1.38905 -2.77813,-0.84858 z m 6.12933,-3.26073 c -0.64779,-1.56291 -0.68332,-1.7693 -0.3046,-1.7693 0.3888,0 1.31687,1.61914 1.31803,2.29949 0.002,1.08604 -0.43917,0.85531 -1.01343,-0.53019 z m -15.25745,16.48695 v -0.66146 h -12.7 c -12.554476,0 -12.69894,0.006 -12.60741,0.52916 0.05092,0.29105 0.229518,0.61732 0.396875,0.72505 0.167356,0.10773 5.84069,0.16727 12.607405,0.13229 l 12.30313,-0.0636 z m -2.91042,-4.24669 c 6.19547,-2.93954 6.76595,-11.34012 0.9996,-14.71943 -1.14283,-0.66974 -1.20313,-0.67709 -2.08936,-0.25447 -1.40645,0.67069 -1.51661,0.59664 -1.33933,-0.90026 0.11825,-0.99843 0.0668,-1.3705 -0.20384,-1.47436 -0.53825,-0.20654 -1.90582,0.59085 -2.58209,1.50555 -0.3268,0.44203 -1.10098,1.02787 -1.7204,1.30186 -1.47157,0.65095 -3.50344,2.70507 -4.320685,4.36801 -0.526047,1.0704 -0.650143,1.72693 -0.650143,3.43958 0,1.85675 0.09747,2.29277 0.793748,3.55086 0.89725,1.62121 2.56704,2.99417 4.36563,3.58958 1.77475,0.58752 5.06981,0.38879 6.74687,-0.40692 z m -5.95099,-1.09311 c -1.2902,-0.66582 -2.22548,-1.85461 -2.64372,-3.36033 -0.35142,-1.26513 -0.30672,-3.87154 0.0889,-5.18407 0.31387,-1.0413 0.33033,-1.05197 1.63331,-1.05833 l 1.31624,-0.006 -9.1e-4,3.57187 c -5.3e-4,1.96453 -0.06,3.92907 -0.13229,4.36563 -0.11,0.66456 -0.037,0.80717 0.44828,0.87625 0.68568,0.0976 1.82514,-0.59187 2.27535,-1.37674 0.19898,-0.34688 0.37002,-2.25889 0.45228,-5.05576 0.12578,-4.27642 0.15889,-4.50173 0.67248,-4.57524 0.85617,-0.12256 2.56785,1.30898 3.28198,2.74485 0.48328,0.97169 0.64875,1.73675 0.65339,3.02101 0.0139,3.84886 -1.87665,6.10291 -5.44816,6.4957 -1.15381,0.12689 -1.62365,0.044 -2.59714,-0.45841 z m -4.09119,-2.40999 c -1.21725,-1.85776 -1.210458,-5.20722 0.0132,-6.51871 0.29488,-0.31604 0.32653,-0.009 0.19346,1.87665 -0.10149,1.43815 -0.0393,2.75378 0.17166,3.6333 0.3789,1.57944 0.23936,1.95149 -0.37834,1.00876 z m 5.73764,-6.00887 c 0.0901,-7.36723 0.56674,-7.97181 0.67799,-0.86001 0.0795,5.08108 -0.0382,6.68117 -0.49154,6.68117 -0.1615,0 -0.23108,-2.17237 -0.18645,-5.82116 z m 7.4712,2.43421 c -0.0102,-2.48453 -0.62293,-3.91907 -2.43861,-5.70916 -0.87535,-0.86301 -1.1047,-1.22264 -0.77973,-1.22264 0.57631,0 2.74098,1.97116 3.25388,2.963 0.61364,1.18666 0.92047,3.30262 0.6521,4.49705 -0.40736,1.81302 -0.67891,1.60442 -0.68764,-0.52825 z m -9.58838,-5.65831 c 0.13184,-0.39551 0.73318,-0.61328 0.73318,-0.26551 0,0.14207 -0.18854,0.33067 -0.41898,0.4191 -0.25768,0.0989 -0.37864,0.0397 -0.3142,-0.15359 z m 31.53824,9.15865 c 0.31483,-0.31483 0.41479,-0.97325 0.41172,-2.71198 -0.004,-2.38251 -0.30662,-3.53372 -0.64676,-2.46203 -0.31315,0.98665 -1.45028,2.10489 -2.3329,2.29416 -0.46901,0.10057 -0.93493,0.23101 -1.03538,0.28988 -0.32676,0.19148 0.34594,1.65701 0.83131,1.81106 0.25969,0.0824 0.68491,0.38494 0.94494,0.67227 0.56972,0.62953 1.26367,0.67004 1.82707,0.10664 z"
       style="fill:#000000;stroke-width:0.26458332" />
    <path
       transform="scale(0.26458333)"
       id="path9"
       d="m 209.98245,679.37144 c -9.75095,-2.90371 -15.26915,-8.33199 -16.79147,-16.51787 -1.26645,-6.80999 2.03254,-15.57769 7.94102,-21.10478 7.77781,-7.27576 18.54989,-9.70934 31.68725,-7.15866 2.85721,0.55475 5.91321,1.00932 6.7911,1.01015 l 1.59615,0.002 0.36529,-4.38524 c 0.38246,-4.59132 0.0739,-32.30514 -0.3645,-32.74358 -0.13913,-0.13914 -5.34654,-0.30841 -11.57202,-0.37616 -13.51054,-0.14705 -14.3923,0.092 -16.78068,4.54875 -0.78156,1.45841 -1.62588,2.65165 -1.87627,2.65165 -1.64056,0 -2.14466,-7.0781 -0.74301,-10.43271 1.90248,-4.55328 3.93271,-5.19463 18.07725,-5.71058 5.89148,-0.2149 11.09195,-0.55198 11.55661,-0.74907 0.46466,-0.19708 1.02697,-0.73851 1.24959,-1.20317 0.22262,-0.46464 0.48209,-7.94745 0.57661,-16.62845 l 0.17185,-15.78363 -2.17906,-0.003 c -3.26486,-0.004 -11.12022,-1.28312 -18.15019,-2.95442 -12.57455,-2.98945 -15.16746,-3.00796 -18.29287,-0.1306 -2.13682,1.96723 -3.01728,4.03132 -3.0408,7.12861 -0.0232,3.05512 0.78957,4.99233 3.28882,7.83883 0.86515,0.98535 1.4353,1.92925 1.267,2.09755 -0.50641,0.50641 -3.55201,-2.10087 -5.15007,-4.40888 -5.27276,-7.61517 3.40592,-20.67456 15.59656,-23.46921 4.32367,-0.99118 8.2381,-0.73638 16.28592,1.06011 17.38075,3.87983 16.72714,3.86003 21.86213,0.66221 2.33463,-1.4539 3.12033,-1.75602 2.86071,-1.1 -0.88664,2.24029 -1.30865,12.41994 -1.17428,28.32496 0.1332,15.76544 0.22302,17.32109 1.04761,18.14514 0.81734,0.8168 2.08203,0.90133 13.48554,0.90133 9.64471,0 12.73696,-0.15319 13.24021,-0.65594 0.50437,-0.50385 0.69059,-4.3357 0.80321,-16.52731 l 0.14661,-15.87139 -3.10636,-2.28677 c -3.45059,-2.54018 -4.56573,-2.73052 -9.03266,-1.54177 -5.39484,1.43569 -3.72938,-0.0169 7.19613,-6.27626 4.38747,-2.51365 8.21156,-4.57027 8.49797,-4.57027 0.28642,0 3.11364,1.80824 6.28271,4.01831 7.7879,5.43117 7.30379,5.22838 10.17114,4.26073 1.33446,-0.45034 3.04003,-1.13364 3.79016,-1.51846 0.75014,-0.38481 1.75132,-0.69966 2.22486,-0.69966 1.49818,0 -0.57867,1.82896 -6.41261,5.6472 l -5.34925,3.50101 -0.3042,38.98872 -0.3042,38.98872 1.83392,1.88616 c 2.51293,2.5845 4.58252,3.20649 8.07134,2.42573 1.50849,-0.33759 2.85365,-0.50286 2.98924,-0.36728 1.02982,1.02983 -18.20195,11.78563 -20.03365,11.20426 -0.52341,-0.16612 -3.16508,-1.88112 -5.87038,-3.81111 -3.0958,-2.20859 -5.41167,-3.50907 -6.24885,-3.50907 -0.73157,0 -2.9993,0.56772 -5.03939,1.2616 -6.45922,2.19692 -4.99373,0.57102 3.95972,-4.39313 3.15187,-1.74753 5.92279,-3.53629 6.15759,-3.97502 0.2348,-0.43873 0.49705,-9.05426 0.58277,-19.14564 l 0.15586,-18.34794 -10.56177,0.32925 c -5.80898,0.18108 -12.31685,0.32924 -14.46194,0.32924 h -3.90018 l -0.33386,11.23795 c -0.57523,19.36285 -1.21408,27.12467 -2.36562,28.74186 -1.10026,1.54517 -7.75351,6.11164 -12.00986,8.24298 l -2.72204,1.36305 -4.60156,-1.80252 c -11.19339,-4.38465 -21.47804,-5.32207 -27.42558,-2.49978 -3.01624,1.4313 -7.63576,6.4179 -9.36119,10.10506 -1.39051,2.97145 -1.50691,3.61606 -1.29062,7.14746 0.30022,4.90175 1.72426,8.02477 5.29602,11.61451 3.92484,3.94461 8.92341,5.98665 17.06813,6.97275 2.64917,0.32074 2.83981,0.41205 1.51523,0.72575 -2.67312,0.63307 -4.96135,0.45086 -8.83884,-0.7038 z"
       style="fill:#000000;stroke-width:0.50507629" />
    <path
       transform="scale(0.26458333)"
       id="path11"
       d="m 209.98245,679.35849 c -10.00438,-3.01338 -15.23748,-8.14875 -16.78532,-16.47186 -1.27096,-6.83424 2.01398,-15.59913 7.91525,-21.11948 7.84621,-7.33974 18.22755,-9.67848 31.85104,-7.17549 8.7168,1.6015 8.1756,1.81572 8.61329,-3.40926 0.36286,-4.33174 0.0209,-32.31913 -0.40008,-32.74007 -0.11767,-0.11766 -5.3094,-0.24186 -11.53718,-0.27599 -13.65766,-0.0748 -14.25962,0.0812 -16.65007,4.31689 -0.87347,1.54771 -1.78572,2.81401 -2.02722,2.81401 -1.78131,0 -2.15407,-7.18013 -0.55985,-10.78412 1.87724,-4.24382 3.61925,-4.76804 17.76289,-5.34532 5.97253,-0.24377 11.23931,-0.59578 11.70397,-0.78224 0.46466,-0.18646 1.02079,-0.71919 1.23585,-1.18385 0.21506,-0.46466 0.4794,-7.94747 0.58744,-16.62847 l 0.19642,-15.78363 -2.18989,-0.003 c -3.27827,-0.004 -11.27919,-1.30482 -18.55418,-3.01556 -11.86373,-2.78979 -14.60112,-2.81834 -17.7308,-0.18488 -2.21113,1.86053 -3.13153,3.95594 -3.16104,7.19643 -0.0284,3.12143 0.77641,5.08037 3.24015,7.88643 0.86515,0.98535 1.4353,1.92925 1.267,2.09755 -0.50641,0.50641 -3.55201,-2.10087 -5.15007,-4.40888 -1.26643,-1.82904 -1.49404,-2.6348 -1.47841,-5.23365 0.0508,-8.45214 8.5252,-16.84544 18.74175,-18.56245 4.17346,-0.70141 9.04357,-0.0693 20.5253,2.66408 3.67203,0.87417 7.94569,1.61493 9.49704,1.64613 2.51042,0.0505 3.17492,-0.1761 6.04223,-2.06041 1.77188,-1.16442 3.28067,-2.05807 3.35287,-1.98587 0.0722,0.0722 -0.13902,1.02762 -0.46935,2.12317 -0.42138,1.39747 -0.6057,8.27907 -0.61766,23.05969 -0.0158,19.5667 0.0472,21.13213 0.88513,21.97082 0.81823,0.81902 2.07284,0.90303 13.48571,0.90303 9.64409,0 12.73688,-0.15321 13.23997,-0.65587 0.50358,-0.50316 0.69335,-4.34943 0.81502,-16.51849 l 0.15861,-15.86262 -3.11836,-2.2956 c -3.25154,-2.39365 -4.88103,-2.77369 -7.85635,-1.83228 -2.60643,0.82468 -4.24225,1.08056 -4.24225,0.66357 0,-0.81928 17.41024,-11.22842 18.78057,-11.22842 0.26518,0 3.2853,1.93192 6.71139,4.29315 7.02834,4.84387 7.70415,5.01196 12.18467,3.03046 6.42646,-2.84209 5.11707,-0.84445 -2.87507,4.38631 l -5.35201,3.50282 -0.29099,38.98692 -0.29098,38.98691 1.84556,1.90879 c 2.38291,2.46455 4.80881,3.22177 7.86007,2.45345 3.14103,-0.79092 3.62352,-0.75696 2.82997,0.1992 -1.40801,1.69655 -17.54133,10.84339 -19.12571,10.84339 -0.25914,0 -3.0109,-1.70463 -6.11503,-3.78807 -3.10413,-2.08344 -6.15246,-3.78807 -6.77408,-3.78807 -0.62161,0 -2.80081,0.56821 -4.84267,1.26269 -4.26388,1.45024 -4.04061,1.40639 -4.04061,0.79349 0,-0.49501 5.05784,-3.70546 10.66632,-6.77043 3.03286,-1.65742 3.37109,-2.00423 3.64889,-3.74147 0.35333,-2.20965 0.49909,-35.48719 0.15693,-35.82935 -0.12523,-0.12522 -6.58686,-0.0655 -14.35917,0.13266 l -14.13148,0.36035 -0.33364,11.16316 c -0.56674,18.96239 -1.22577,27.05809 -2.32877,28.60712 -1.18022,1.65745 -7.2269,5.86814 -11.54408,8.03887 l -3.22373,1.62093 -4.76994,-1.82575 c -7.35565,-2.81546 -12.19171,-3.8054 -18.58211,-3.8038 -4.79486,0.001 -5.91059,0.16658 -8.14585,1.20736 -3.14687,1.46525 -7.5338,5.80932 -9.48267,9.39003 -3.7323,6.85746 -1.33235,16.1536 5.50669,21.33 3.77832,2.85977 7.51044,4.11266 15.65737,5.25623 2.35298,0.33028 2.42194,0.37905 1.01015,0.71433 -2.67902,0.63624 -4.96476,0.45115 -8.83884,-0.71574 z"
       style="fill:#000000;stroke-width:0.50507629" />
  </g>
</svg>
